<?xml version="1.0" encoding="UTF-8" standalone="no"?>
<!-- Created with Inkscape (http://www.inkscape.org/) -->

<svg
   width="50"
   height="50"
   viewBox="0 0 50 50"
   version="1.1"
   id="svg5"
   inkscape:version="1.2.2 (b0a8486541, 2022-12-01)"
   sodipodi:docname="Icon.svg"
   inkscape:export-filename="Icon.png"
   inkscape:export-xdpi="72"
   inkscape:export-ydpi="72"
   xmlns:inkscape="http://www.inkscape.org/namespaces/inkscape"
   xmlns:sodipodi="http://sodipodi.sourceforge.net/DTD/sodipodi-0.dtd"
   xmlns="http://www.w3.org/2000/svg"
   xmlns:svg="http://www.w3.org/2000/svg">
  <sodipodi:namedview
     id="namedview7"
     pagecolor="#ffffff"
     bordercolor="#000000"
     borderopacity="0.25"
     inkscape:showpageshadow="2"
     inkscape:pageopacity="0.0"
     inkscape:pagecheckerboard="0"
     inkscape:deskcolor="#d1d1d1"
     inkscape:document-units="mm"
     showgrid="false"
     inkscape:zoom="6.05"
     inkscape:cx="80.247934"
     inkscape:cy="51.322314"
     inkscape:window-width="2560"
     inkscape:window-height="1367"
     inkscape:window-x="2560"
     inkscape:window-y="0"
     inkscape:window-maximized="1"
     inkscape:current-layer="g2148" />
  <defs
     id="defs2" />
  <g
     inkscape:label="Layer 1"
     inkscape:groupmode="layer"
     id="layer1">
    <g
       id="g2148"
       transform="matrix(0.35823795,0,0,0.35823795,-10.823795,-10.823795)">
      <rect
         style="fill:#0090bd;fill-opacity:1;stroke:#2f3b3d;stroke-width:4;stroke-dasharray:none;stroke-opacity:1"
         id="rect111"
         width="135.57204"
         height="135.57204"
         x="32.213982"
         y="32.213982"
         ry="10.678464" />
      <g
         aria-label="C"
         id="text1510"
         style="font-weight:bold;font-size:103.525px;font-family:'23AEBD_0_0';-inkscape-font-specification:'23AEBD_0_0 Bold';fill:#2f3b3d;stroke-width:8.62708">
        <path
           d="m 103.88005,73.120513 q -8.846129,0 -13.698864,6.67251 -4.852734,6.62196 -4.852734,18.50105 0,24.718617 18.551598,24.718617 7.7846,0 18.8549,-3.8923 v 13.14282 q -9.09888,3.7912 -20.32083,3.7912 -16.125231,0 -24.668066,-9.75602 -8.542834,-9.80656 -8.542834,-28.105416 0,-11.525244 4.195593,-20.169177 4.195593,-8.694483 12.030737,-13.294471 7.885694,-4.650537 18.4505,-4.650537 10.76701,0 21.63511,5.20658 l -5.05493,12.738428 q -4.14505,-1.971424 -8.34064,-3.437354 -4.19559,-1.46593 -8.23954,-1.46593 z"
           style="font-family:'Open Sans';-inkscape-font-specification:'Open Sans, Bold'"
           id="path1573" />
      </g>
      <g
         aria-label="5"
         id="text1668"
         style="font-weight:bold;font-size:41.3036px;font-family:'Open Sans';-inkscape-font-specification:'Open Sans, Bold';fill:#2f3b3d;stroke-width:0.398974">
        <path
           d="m 145.7815,51.835121 q 4.27556,0 6.79654,2.399965 2.54114,2.399965 2.54114,6.574694 0,4.941105 -3.04534,7.603251 -3.04533,2.662146 -8.71248,2.662146 -4.92093,0 -7.9461,-1.593254 v -5.384796 q 1.59325,0.847047 3.71087,1.391577 2.11762,0.524362 4.01339,0.524362 5.70748,0 5.70748,-4.678924 0,-4.457078 -5.90916,-4.457078 -1.06889,0 -2.35963,0.221846 -1.29074,0.201678 -2.09745,0.443691 l -2.48063,-1.331073 1.10922,-15.024991 h 15.99305 v 5.283956 h -10.52758 l -0.54453,5.788151 0.70587,-0.141174 q 1.23024,-0.282349 3.04534,-0.282349 z"
           id="path1672" />
      </g>
    </g>
  </g>
</svg>
